<?xml version="1.0" encoding="UTF-8"?>
<svg width="346.62mm" height="225.78mm" version="1.1" viewBox="0 0 1228.1961 799.99997" xmlns="http://www.w3.org/2000/svg">
 <defs>
  <clipPath id="d">
   <path d="m-6.3812 115.3-266.17 700h900l38.024-100 152.1-400h-92.666l-152.1 400h-707.33l190.12-500h900l0.0521-0.13672-160.28-99.863z" fill="#b40000" filter="url(#f)"/>
  </clipPath>
  <filter id="f" x="-.065938" y="-.11569" width="1.1319" height="1.2314" color-interpolation-filters="sRGB">
   <feGaussianBlur stdDeviation="33.743432"/>
  </filter>
  <clipPath id="c">
   <path d="m55.596 215.3-38.024 100-152.1 400h92.666l158.01-400h701.42l-190.12 500h-900l160.5 100h801.48l266.17-700h-900z" fill="#f00000" filter="url(#e)"/>
  </clipPath>
  <filter id="e" x="-.065939" y="-.11569" width="1.1319" height="1.2314" color-interpolation-filters="sRGB">
   <feGaussianBlur stdDeviation="33.74252"/>
  </filter>
  <filter id="b" x="-.065938" y="-.11569" width="1.1319" height="1.2314" color-interpolation-filters="sRGB">
   <feGaussianBlur stdDeviation="33.743432"/>
  </filter>
  <clipPath id="j">
   <path d="m-6.3812 115.3-266.17 700h900l38.024-100 152.1-400h-92.666l-152.1 400h-707.33l190.12-500h900l0.0521-0.13672-160.28-99.863z" clip-path="url(#d)" fill="#5f8dd3" filter="url(#b)"/>
  </clipPath>
  <clipPath id="i">
   <path d="m-6.3812 115.3-266.17 700h900l38.024-100 152.1-400h-92.666l-152.1 400h-707.33l190.12-500h900l0.0521-0.13672-160.28-99.863z" clip-path="url(#d)" fill="#5f8dd3" filter="url(#b)"/>
  </clipPath>
  <filter id="a" x="-.065939" y="-.11569" width="1.1319" height="1.2314" color-interpolation-filters="sRGB">
   <feGaussianBlur stdDeviation="33.74252"/>
  </filter>
  <clipPath id="h">
   <path d="m55.596 215.3-38.024 100-152.1 400h92.666l158.01-400h701.42l-190.12 500h-900l160.5 100h801.48l266.17-700h-900z" clip-path="url(#c)" fill="#ffd42a" filter="url(#a)"/>
  </clipPath>
  <clipPath id="g">
   <path d="m55.596 215.3-38.024 100-152.1 400h92.666l158.01-400h701.42l-190.12 500h-900l160.5 100h801.48l266.17-700h-900z" clip-path="url(#c)" fill="#ffd42a" filter="url(#a)"/>
  </clipPath>
 </defs>
 <g transform="translate(263.37 365.87)">
  <path transform="translate(9.1745 -481.18)" d="m-6.3812 115.3-266.17 700h900l38.024-100 152.1-400h-92.666l-152.1 400h-707.33l190.12-500h900l0.0521-0.13672-160.28-99.863z" clip-path="url(#i)"/>
  <path transform="translate(9.1745 -481.18)" d="m-6.3812 115.3-266.17 700h900l38.024-100 152.1-400h-92.666l-152.1 400h-707.33l190.12-500h900l0.0521-0.13672-160.28-99.863z" clip-path="url(#j)" fill="#5f8dd3" filter="url(#b)"/>
  <path transform="translate(9.1745 -481.18)" d="m55.596 215.3-38.024 100-152.1 400h92.666l158.01-400h701.42l-190.12 500h-900l160.5 100h801.48l266.17-700h-900z" clip-path="url(#g)"/>
  <path transform="translate(9.1745 -481.18)" d="m55.596 215.3-38.024 100-152.1 400h92.666l158.01-400h701.42l-190.12 500h-900l160.5 100h801.48l266.17-700h-900z" clip-path="url(#h)" fill="#ffd42a" filter="url(#a)"/>
 </g>
</svg>
