<svg xmlns="http://www.w3.org/2000/svg" viewBox="0 0 573 590" width="573" height="590">
	<style>
		tspan { white-space:pre }
		.shp0 { fill: #000000 } 
	</style>
	<g id="layer1">
		<g id="Layer">
			<g id="Layer">
				<path id="Layer" class="shp0" d="M294.57 0.86C284.97 1.22 269.85 2.54 261.6 3.76C214.42 10.66 173.83 28.77 139.51 58.23C134.83 62.25 123.27 73.83 119.27 78.49C111.35 87.79 104.43 97.54 98.9 107.14C89.35 123.76 80.72 145.15 76.98 161.42C75.12 169.59 74.18 176.42 73.82 184.8C73.59 189.99 73.59 190.47 74.18 194.22C75.04 199.61 75.91 203.38 76.88 205.67C77.31 206.72 77.87 208.07 78.1 208.65L78.51 209.72L76.75 212.35C69.75 222.91 62.52 232.33 45.15 253.44C27.66 274.73 18.65 286.51 11.31 297.67C4.9 307.47 1.94 313.81 0.52 320.94C-0.12 323.97 -0.14 325.88 0.34 328.45C1.23 333.11 2.89 335.86 7.06 339.68C9.81 342.2 12.23 343.93 14.88 345.25C16 345.81 18.16 346.96 19.66 347.8C25.06 350.8 27.48 351.57 35.5 352.82C40.75 353.66 43.7 354.37 44.97 355.16C46.83 356.33 48.08 358.55 47.7 360.15C46.68 364.66 42.76 377.06 41.71 379.12C41.31 379.93 40.21 381.59 39.27 382.81C38.33 384.06 37.13 385.61 36.6 386.32C33.49 390.4 32.47 394.73 33.44 399.77C34.28 404.12 37.79 408.7 43.39 412.8C47.24 415.6 47.62 415.99 47.32 416.55C47.16 416.8 45.58 418.58 43.78 420.47C41.97 422.35 39.96 424.69 39.3 425.69C37.72 428.08 36.6 430.96 36.47 433.05C36.37 434.57 36.44 434.85 37.36 436.74C38.66 439.36 40.7 442.06 44.59 446.16C46.4 448.07 48.08 450.13 48.56 451C49.02 451.84 49.79 453.01 50.24 453.57C51.26 454.84 52.76 458.35 53.2 460.44C53.91 463.78 52.92 468.06 49.12 478.37C47.72 482.21 46.45 485.62 46.32 485.96C45.69 487.46 43.5 495.12 42.94 497.85C41.28 505.76 41.41 513 43.27 519.36C43.55 520.28 44.59 522.47 45.61 524.25C50.24 532.35 55.16 537.79 61.96 542.35C63.23 543.19 64.65 544.21 65.11 544.62C67.15 546.38 74.36 549.48 81.84 551.8L86.42 553.25L101.96 553.48C110.51 553.61 127.47 553.86 139.64 553.99C151.84 554.14 163.06 554.37 164.62 554.5C172.18 555.08 178.04 558.14 182.92 564.05C183.64 564.89 184.66 566.03 185.22 566.59C186.13 567.53 188.19 571.07 190.33 575.38C191.35 577.46 193.69 583.37 194.76 586.63L195.58 589.13L199.63 589.13C201.87 589.13 203.68 589.02 203.68 588.92C203.68 588.44 200.85 580.32 199.5 576.9C196.9 570.39 192.12 561.83 190.23 560.33C189.8 560 188.83 558.95 188.04 558.04C185.72 555.26 181.45 551.93 178.01 550.19C173.43 547.88 169.23 546.94 162.3 546.6C159.65 546.48 142.57 546.2 124.36 545.99C106.16 545.76 90.29 545.54 89.1 545.43C84.62 545.08 72.32 540.52 69.75 538.28C69.26 537.85 68.24 537.13 67.48 536.7C61.42 533.14 55.26 526.21 51.57 518.88C49.12 514.01 48.97 505.31 51.19 496.62C51.95 493.59 53.53 488.91 56.58 480.63C59.26 473.43 60.53 468.95 61.09 464.95C61.65 461.13 60.63 456.57 58.14 451.58C57.47 450.28 56.66 448.86 56.33 448.45C56 448.02 55.18 446.87 54.55 445.9C53.88 444.91 51.77 442.42 49.86 440.35C46.58 436.81 44.29 433.86 44.29 433.1C44.29 432.51 45.48 430.37 46.6 428.95C47.21 428.18 49.05 426.17 50.68 424.44C53.99 421 55.31 418.84 55.62 416.42C56.02 413.21 55 411.71 49.73 407.81C45.23 404.5 42.71 402.03 41.66 399.95C41.08 398.8 40.98 398.24 40.98 396.51C40.98 395.36 41.1 394.04 41.26 393.58C41.43 393.12 42.96 390.88 44.69 388.59C46.55 386.12 48.23 383.57 48.84 382.33C49.86 380.21 52.89 370.87 54.6 364.68C56.43 357.93 55.39 353.86 50.85 350.04C47.67 347.37 45.05 346.43 37.18 345.2C31.15 344.26 28.63 343.62 26.46 342.56C20.45 339.53 16.25 337.16 14.62 335.94C11.97 333.87 9.45 331.15 8.72 329.44C6.45 324.38 9.05 315.72 16.23 304.44C23.59 292.88 31.48 282.47 51.69 257.74C65.39 240.96 72.17 232.41 76.42 226.55C80.01 221.56 85.74 212.98 86.22 211.84C86.86 210.33 86.3 207.86 84.29 203.23C82.91 200.05 81.46 192.2 81.46 188.03C81.46 173.85 85.18 156.97 92.23 139.22C102.85 112.48 115.55 92.7 134.16 74.01C140.68 67.47 144.99 63.57 151.4 58.48C159.83 51.78 168.18 46.03 177.07 40.81C190.1 33.17 206.22 25.92 220.35 21.36C247.32 12.6 273.77 8.6 304.88 8.6C323.85 8.6 337.83 9.67 358.48 12.7C370.17 14.41 389.6 18.25 392.07 19.32C392.68 19.58 394.23 20.06 395.5 20.34C404.18 22.35 413.94 25.38 422.92 28.87C425.95 30.04 428.63 31.01 428.88 31.01C429.8 31.01 449.58 40.2 455.95 43.59C471.61 51.91 486.09 62.05 498.9 73.66C505.8 79.89 517.41 92.17 519.27 95.17C519.65 95.81 520.75 97.26 521.72 98.38C522.66 99.52 524.21 101.51 525.15 102.83C526.1 104.16 527.29 105.71 527.83 106.27C528.34 106.86 528.97 107.72 529.2 108.18C529.46 108.67 531.29 111.52 533.3 114.52C535.29 117.53 537.76 121.47 538.77 123.31C541.09 127.46 546.64 138.84 548.43 143.04C549.16 144.8 550.13 147.09 550.59 148.13C552.09 151.49 556.65 166.13 557.72 171.05C558.07 172.65 558.58 174.48 558.84 175.12C559.81 177.46 562.58 192.74 563.45 200.33C564.9 213.54 565.33 231.06 564.47 243.61C562.05 278.9 554.13 310.63 539.67 343.12C534.75 354.19 529.48 362.77 517.36 379.58C508.58 391.75 502.39 401.09 498.9 407.46C498.37 408.42 497.65 409.57 497.32 409.95C497.02 410.36 496.33 411.51 495.82 412.5C495.31 413.52 493.94 416.06 492.74 418.2C488.72 425.41 484.21 437.15 482.48 445.01C481.21 450.79 481.08 452.5 481.1 462.84C481.18 490.11 483.88 514.96 492.05 563.41C493.53 572.17 495.11 581.54 495.54 584.21L496.36 589.13L500.38 589.13L504.43 589.13L504.25 588.03C504.15 587.45 503.97 586.55 503.84 586.07C503.54 584.92 498.75 556.54 496.76 544.06C491.19 509.15 489.02 486.87 489 463.85C488.97 454.05 489.02 452.17 489.43 449.98C490.7 442.77 493.45 434.62 497.53 425.92C499 422.81 503.33 414.94 503.99 414.2C504.33 413.85 504.94 412.83 505.39 411.91C508.14 406.39 512.22 400.25 525.23 382C538.09 363.94 542.57 356.25 548.78 341.66C558.71 318.34 565.18 296.19 569.05 272.31C571.42 257.64 572.36 246.9 572.54 232.18C572.77 214.46 571.93 202.01 569.53 188.13C568.44 181.71 566.58 172.98 566.17 172.14C565.97 171.76 565.59 170.51 565.36 169.39C564.19 164.04 559.48 149.07 557.54 144.59C553.49 135.15 550.31 128.32 547.36 122.8C544.48 117.45 543.28 115.44 539.82 110.27C538.16 107.77 536.48 105.15 536.08 104.46C535.67 103.75 534.7 102.38 533.91 101.41C533.15 100.42 531.88 98.79 531.11 97.74C530.37 96.72 529.02 94.99 528.13 93.92C527.22 92.85 526.27 91.58 526.02 91.1C524.87 88.86 512.98 76.07 506.29 69.86C491.19 55.83 473.77 43.71 455.85 34.75C448 30.83 432.42 23.78 430.79 23.42C430.16 23.29 427.58 22.38 425.06 21.38C417.55 18.48 407.62 15.32 400.06 13.46C397.79 12.9 395.6 12.27 395.2 12.06C394.31 11.61 390.05 10.64 380.51 8.7C354.71 3.51 332.1 1.06 308.07 0.86C301.98 0.81 295.9 0.81 294.57 0.86Z" />
			</g>
			<g id="Layer">
				<path id="Layer" fill-rule="evenodd" class="shp0" d="M355.55 23.95C357.13 24.03 358.23 24.23 359.04 24.59C360.65 25.3 362.63 27.21 363.45 28.79C364.01 29.91 364.08 30.42 364.08 32.66C364.08 34.9 364.01 35.41 363.45 36.53C362.66 38.11 360.67 40.02 359.04 40.73C357.31 41.52 353.52 41.52 351.78 40.76C350.18 40.02 348.04 37.83 347.28 36.15L346.67 34.83L332.36 34.83L318.05 34.83L298.54 45.14L279.04 55.45L274.36 55.45C271.81 55.45 268.47 55.53 267 55.63L264.27 55.78L263.66 57.11C262.87 58.84 261.27 60.42 259.46 61.26C258.24 61.84 257.7 61.94 255.62 61.94C253.53 61.94 252.99 61.84 251.8 61.28C249.99 60.42 248.67 59.07 247.65 57C246.93 55.55 246.83 55.07 246.83 53.29C246.83 51.48 246.93 51.05 247.67 49.54C249.35 46.11 252.51 44.3 256.33 44.58C258.72 44.76 260.56 45.62 262.03 47.28C263.15 48.5 263.56 49.16 264.02 50.41L264.27 51.12L277.64 51.12L297.12 40.86L316.6 30.63L331.75 30.55L346.92 30.5L347.23 29.38C347.63 27.82 349.7 25.64 351.68 24.64C353.19 23.88 353.39 23.83 355.55 23.95ZM353.8 28.46C352.09 29 351.1 30.57 351.1 32.74C351.1 34.37 351.63 35.49 352.93 36.43C353.85 37.12 356.72 37.17 357.9 36.53C359.07 35.92 359.83 34.29 359.83 32.51C359.83 30.8 359.25 29.61 358.05 28.89C357.11 28.36 354.87 28.11 353.8 28.46ZM251.24 52.22C251.11 54.59 251.49 55.68 252.92 56.9C254.57 58.38 257.09 58.2 258.8 56.55C260.2 55.2 260.53 53.29 259.72 51.5C259.18 50.33 258.34 49.49 257.32 49.11C254.88 48.17 251.36 49.98 251.24 52.22Z" />
			</g>
			<g id="Layer">
				<path id="Layer" fill-rule="evenodd" class="shp0" d="M403.65 30.85C406.43 31.01 408.06 31.72 409.76 33.55C411.54 35.46 412.08 36.79 412.08 39.41C412.08 41.27 411.98 41.8 411.34 43.15C410.5 45.01 408.72 46.82 406.91 47.63C405.94 48.09 405.25 48.19 403.29 48.19C401.13 48.19 400.72 48.12 399.5 47.48C397.79 46.56 396.22 44.96 395.25 43.13C394.79 42.24 394.33 41.7 394 41.65C393.72 41.6 391.17 41.6 388.35 41.65L383.18 41.73L383.18 82.44L383.18 123.18L395.1 123.2C418.7 123.26 440.03 123.59 440.88 123.92L441.69 124.22L441.87 128.86C441.94 131.4 442 151.26 441.94 173.01C441.87 210.54 441.84 212.55 441.41 212.98C441 213.39 440.26 213.44 433.64 213.52L426.34 213.59L425.6 214.97C424.48 217.11 423.08 218.53 421.17 219.47C419.64 220.24 419.26 220.31 417.3 220.31C415.52 220.31 414.88 220.19 413.73 219.65C411.95 218.81 410.4 217.23 409.48 215.4C408.84 214.1 408.77 213.67 408.77 211.4C408.77 209.14 408.84 208.7 409.46 207.58C410.22 206.08 411.93 204.43 413.53 203.61C415.01 202.85 418.19 202.64 420.12 203.2C422.52 203.92 424.86 206.13 425.73 208.53L426.06 209.49L431.86 209.49L437.67 209.49L437.67 168.63L437.67 127.76L408.97 127.71C393.16 127.66 380.05 127.53 379.79 127.41C379.56 127.3 379.26 126.9 379.16 126.51C379.05 126.16 378.98 106.22 378.98 82.26L378.98 38.67L379.56 38.09C380.12 37.5 380.23 37.5 387.38 37.42L394.64 37.32L395.43 35.69C396.39 33.76 397.67 32.51 399.83 31.47C401.28 30.75 401.51 30.73 403.65 30.85ZM401.38 35.41C399.19 36.46 398.33 39.16 399.45 41.6C400.44 43.81 403.24 44.66 405.59 43.43C407.11 42.64 407.75 41.5 407.75 39.54C407.75 37.83 407.21 36.63 406.07 35.77C405.18 35.13 402.45 34.93 401.38 35.41ZM413.5 209.34C412.43 211.5 413.17 214.41 415.01 215.48C416.23 216.16 418.62 216.16 419.79 215.48C422.82 213.67 422.34 208.35 419.11 207.46C416.64 206.77 414.37 207.53 413.5 209.34Z" />
			</g>
			<g id="Layer">
				<path id="Layer" fill-rule="evenodd" class="shp0" d="M231.99 45.88C236.55 46.18 240.08 50.03 240.08 54.69C240.08 58.1 238.18 61.15 235.07 62.71C233.75 63.39 233.34 63.47 231.3 63.47C228.96 63.47 228.37 63.29 226.28 62.05L225.37 61.49L213.17 70.09C206.48 74.83 198.89 80.2 196.29 82.01C193.69 83.84 190.84 85.88 189.93 86.54C189.01 87.18 184.5 90.38 179.87 93.64C175.26 96.88 171.14 99.86 170.73 100.26C170.01 100.98 169.99 101.03 169.96 103.88C169.94 106.5 169.89 106.86 169.25 107.93C168.33 109.48 166.5 111.11 164.77 111.92C163.55 112.51 162.96 112.61 161.15 112.61C159.3 112.61 158.79 112.51 157.54 111.9C155.65 110.98 153.72 108.87 153.01 106.93C152.17 104.72 152.37 101.97 153.52 99.81C154.84 97.34 157.54 95.45 160.42 95.04C161.84 94.84 164.29 95.4 165.84 96.32C166.45 96.67 167.06 96.95 167.24 96.95C167.42 96.95 168.31 96.42 169.25 95.76C170.19 95.09 172.23 93.69 173.76 92.62C175.31 91.56 177.6 89.95 178.85 89.06C180.12 88.17 182.67 86.39 184.53 85.06C186.36 83.76 189.44 81.6 191.35 80.25C193.29 78.93 195.43 77.37 196.16 76.84C201.21 73.12 222.13 58.68 222.82 58.46C223.03 58.38 223 57.95 222.77 57C221.63 52.19 224.4 47.46 229.11 46.11C229.8 45.93 231 45.83 231.99 45.88ZM231.48 50.38C229.39 50.38 228.96 50.56 227.91 51.73C225.42 54.59 227.53 59.27 231.35 59.27C233.47 59.27 235.45 57.51 235.91 55.25C236.14 54.08 235.4 52.34 234.2 51.28C233.26 50.41 233.11 50.36 231.48 50.38ZM160.01 99.55C156.65 100.75 155.73 104.82 158.25 107.19C160.77 109.53 164.85 108.31 165.71 104.97C166.3 102.61 164.87 100.16 162.48 99.5C161.36 99.19 161 99.19 160.01 99.55Z" />
			</g>
			<g id="Layer">
				<path id="Layer" fill-rule="evenodd" class="shp0" d="M358.89 51.43C360.77 51.5 361.43 51.66 362.63 52.22C364.31 53.06 365.66 54.48 366.6 56.47C367.16 57.67 367.27 58.2 367.27 60.29C367.27 62.55 367.21 62.81 366.4 64.31C365.23 66.48 363.68 67.8 361.59 68.44C359.63 69.05 357.77 69.07 355.94 68.54C353.39 67.77 351.94 66.53 350.61 63.88L349.88 62.45L330.55 62.53L311.2 62.58L311.05 71.59C310.92 80.71 310.87 81.14 309.9 82.24C309.54 82.67 308.19 82.69 288.41 82.69C268.55 82.69 267.3 82.72 267.18 83.13C266.69 84.6 266.34 85.16 265.04 86.49C263.13 88.42 261.52 89.06 258.6 89.06C255.9 89.06 253.99 88.22 252.26 86.28C250.55 84.4 249.94 82.62 250.07 80C250.29 75.51 252.97 72.51 257.48 71.75C261.37 71.06 265.01 73.02 266.95 76.84L267.58 78.11L306.54 78.11L306.54 68.72L306.54 59.32L307.51 58.71L308.45 58.12L329.2 58.05L349.98 57.97L350.44 56.67C351.02 54.99 352.88 53.13 354.97 52.12C356.44 51.4 356.75 51.35 358.89 51.43ZM354.92 57.49C353.62 59.3 354.1 62.43 355.86 63.78C356.57 64.31 357.11 64.49 358.33 64.57C360.21 64.67 361.33 64.16 362.38 62.66C363.83 60.62 363.01 57.36 360.77 56.21C358.84 55.22 356.09 55.83 354.92 57.49ZM255.85 76.89C253.68 78.65 253.91 82.77 256.25 84.22C258.95 85.88 262.44 84.48 263.25 81.37C263.82 79.33 262.34 76.74 260.25 76.13C258.54 75.62 257.12 75.87 255.85 76.89Z" />
			</g>
			<g id="Layer">
				<path id="Layer" fill-rule="evenodd" class="shp0" d="M427.89 51.68C429.75 51.76 430.44 51.91 431.61 52.47C433.31 53.31 435.38 55.45 436.04 57.08L436.52 58.25L443.9 58.25L451.29 58.28L454.37 62.15C456.05 64.29 463.41 73.53 470.69 82.69C477.97 91.86 488.77 105.43 494.68 112.87L505.39 126.36L505.39 140.98L506.77 141.59C508.63 142.45 510.33 144.06 511.17 145.81C511.81 147.06 511.89 147.52 511.89 149.66C511.89 151.8 511.81 152.26 511.17 153.53C508.78 158.42 502.8 159.95 498.27 156.84C495.52 154.95 494.27 152.41 494.5 149.05C494.73 145.79 496.58 143.14 499.77 141.54L501.32 140.75L501.32 134.43L501.3 128.14L492.49 117.07C487.65 110.98 476.01 96.34 466.62 84.53C457.25 72.71 449.4 62.89 449.23 62.71C449.02 62.53 448.67 62.4 448.44 62.45C448.18 62.5 445.41 62.55 442.25 62.55L436.52 62.58L435.83 64.08C434.94 65.99 433.41 67.55 431.61 68.39C430.33 68.97 429.82 69.07 427.61 69.07C425.42 69.07 424.91 69 423.97 68.49C422.19 67.55 420.66 65.97 419.77 64.13C419.05 62.63 418.95 62.2 418.95 60.29C418.95 58.3 419.03 58 419.82 56.52C420.81 54.69 422.34 53.24 424.25 52.27C425.45 51.66 425.8 51.61 427.89 51.68ZM425.09 56.77C423.99 57.67 423.15 59.24 423.15 60.42C423.15 61.59 424.02 63.19 425.06 64.01C426.23 64.9 428.5 65.15 429.67 64.54C431.68 63.5 432.65 61.41 432.09 59.3C431.71 57.87 430.51 56.55 429.26 56.21C427.48 55.71 426.16 55.88 425.09 56.77ZM500.94 145.71C498.06 147.16 498.16 152.1 501.12 153.63C502.14 154.17 504.45 154.09 505.62 153.48C508.3 152.13 508.32 147.11 505.65 145.79C504.55 145.23 502.01 145.2 500.94 145.71Z" />
			</g>
			<g id="Layer">
				<path id="Layer" fill-rule="evenodd" class="shp0" d="M228.25 72.33C230.77 72.43 232.37 73.12 234.03 74.73C235.48 76.18 236.49 78.32 236.67 80.45C236.8 81.73 236.7 82.44 236.21 83.99L235.58 85.9L244.24 96.01L252.89 106.12L260.66 106.12L261.37 104.67C262.26 102.83 263.99 101.13 265.8 100.31C266.95 99.78 267.61 99.65 269.37 99.65C271.3 99.65 271.71 99.73 273.24 100.47C275.3 101.46 277.06 103.29 277.64 105.1C278.2 106.81 278.2 109.99 277.62 111.47C275.93 115.72 271.94 117.86 267.46 116.94C264.88 116.38 262.26 114.27 261.19 111.85L260.71 110.75L256.07 110.65L251.42 110.58L250.12 109.17C248.39 107.32 240.06 97.82 235.81 92.83L232.42 88.86L230.84 89.37C224.07 91.5 217.37 85.42 219.31 78.82C220.1 76.05 221.96 74.04 224.71 72.87C225.98 72.33 226.51 72.26 228.25 72.33ZM225.7 77.07C224.02 78.11 223.66 78.75 223.56 80.94L223.48 82.97L224.66 84.1C226.79 86.16 229.06 86.16 231.12 84.07L232.24 82.95L232.17 80.94C232.06 79.08 231.99 78.82 231.3 78.11C230.87 77.65 230.23 77.14 229.85 76.94C228.86 76.43 226.62 76.48 225.7 77.07ZM266 105.25C265.37 105.99 264.78 107.49 264.78 108.46C264.78 109.56 265.65 111.24 266.51 111.9C267.53 112.64 269.16 113.1 270.18 112.89C272.01 112.56 273.95 110.17 273.95 108.26C273.95 106.96 273.11 105.36 272.06 104.64C270.31 103.45 267.33 103.78 266 105.25Z" />
			</g>
			<g id="Layer">
				<path id="Layer" fill-rule="evenodd" class="shp0" d="M327.93 75.62C329.81 75.69 330.6 75.85 331.47 76.3C333.25 77.22 335.21 79.23 335.85 80.81L336.43 82.19L353.52 82.19L353.97 81.04C355.5 77.37 358.74 75.39 362.91 75.62C366.15 75.77 368.79 77.48 370.35 80.4C371.06 81.7 371.03 86.72 370.35 88.14C369.63 89.54 367.57 91.48 365.89 92.29C364.69 92.88 364.13 93.01 362.3 93.01C360.42 93.01 359.93 92.9 358.63 92.27C356.72 91.33 355.07 89.7 354.28 87.97C353.92 87.25 353.49 86.59 353.29 86.51C353.08 86.44 349.21 86.41 344.68 86.46L336.46 86.54L335.64 88.02C334.57 89.95 332.97 91.53 331.24 92.34C329.25 93.29 326.15 93.26 324.11 92.32C322.22 91.45 320.67 90.03 319.83 88.45C319.19 87.28 319.14 86.9 319.14 84.35C319.14 82.03 319.25 81.35 319.68 80.38C320.49 78.62 321.69 77.45 323.68 76.43C325.46 75.54 325.56 75.51 327.93 75.62ZM326.17 79.92C322.94 81.22 322.05 85.27 324.54 87.56C327.19 90 331.49 88.53 332.13 84.94C332.49 83.05 331.31 81.04 329.33 80.12C328.21 79.61 327.11 79.54 326.17 79.92ZM358.69 81.47C357.87 82.64 357.82 85.85 358.63 86.95C359.88 88.68 362.99 89.37 364.52 88.22C366.12 87.05 366.71 86.08 366.71 84.63C366.71 82.13 365.94 80.84 364.03 80.02C362.07 79.23 359.88 79.82 358.69 81.47Z" />
			</g>
			<g id="Layer">
				<path id="Layer" fill-rule="evenodd" class="shp0" d="M409.94 88.47C411.65 89.24 413.33 90.89 414.27 92.73L415.11 94.36L417.04 94.51C418.09 94.59 424.04 94.71 430.28 94.81L441.61 94.97L442.48 93.29C443.42 91.4 444.75 90.18 446.73 89.26C447.72 88.81 448.44 88.7 450.4 88.68C452.56 88.68 452.97 88.75 454.29 89.39C457.37 90.92 458.8 93.29 459 97.11C459.11 99.24 459.05 99.58 458.42 101C456.56 105.13 451.82 107.09 447.37 105.58C445.25 104.87 443.04 102.83 442.25 100.93L441.69 99.58L438.33 99.42C436.5 99.32 430.46 99.17 424.94 99.09L414.88 98.94L414.11 100.54C413.17 102.55 411.01 104.41 408.9 105.02C406.83 105.61 403.98 105.36 402.22 104.41C399.07 102.73 397.67 100.31 397.67 96.57C397.67 92.34 399.75 89.42 403.62 88.14C405.13 87.66 408.49 87.84 409.94 88.47ZM404.57 92.45C402.94 93.31 401.97 94.61 401.82 96.16C401.66 97.77 402.05 98.74 403.32 99.86C405.92 102.22 410.14 100.82 410.78 97.34C411.19 95.25 409.58 92.73 407.49 92.14C406.07 91.76 405.81 91.78 404.57 92.45ZM448.49 93.13C448.21 93.24 447.52 93.82 446.96 94.41C445.97 95.43 445.94 95.48 445.94 97.34L445.94 99.24L447.11 100.42C448.08 101.36 448.51 101.61 449.4 101.71C452 102.02 454.19 100.62 454.68 98.35C455.13 96.14 454.37 94.43 452.43 93.44C451.29 92.85 449.48 92.7 448.49 93.13Z" />
			</g>
			<g id="Layer">
				<path id="Layer" fill-rule="evenodd" class="shp0" d="M201.99 93.72C203.93 94.61 206.04 96.77 206.6 98.46L207.01 99.73L218.09 99.81C228.42 99.88 229.21 99.91 229.52 100.34C230.08 101.1 230.21 108.18 230.1 129.93C230.03 151.54 230.05 151.06 228.81 151.75C228.4 151.98 224.5 152.1 213.48 152.2L198.74 152.33L198.51 153.12C198.18 154.27 196.57 156.28 195.4 157.07C193.69 158.16 192.34 158.57 190.31 158.57C185.01 158.57 181.47 155.08 181.5 149.89C181.5 147.21 182.24 145.36 183.92 143.65C185.65 141.94 187.43 141.26 190.18 141.26C193.9 141.26 196.55 142.83 198.1 145.99L198.91 147.62L225.83 147.62L225.83 103.83L207.09 103.83L206.4 105.23C204.54 109.05 200.9 111.03 196.98 110.42C192.01 109.61 188.91 105.23 189.72 100.16C190.26 96.75 192.78 94 196.16 93.11C197.64 92.7 200.42 93.01 201.99 93.72ZM193.82 101.13C193.64 102.66 193.85 103.4 194.81 104.49C195.83 105.64 196.9 106.12 198.46 106.12C200.39 106.12 202.05 104.9 202.66 102.99C203.27 101.05 202.22 98.66 200.37 97.72C197.62 96.32 194.15 98.1 193.82 101.13ZM185.75 150.45C186.31 153.3 188.91 155.03 191.38 154.22C193.85 153.43 195.07 151.42 194.53 149.1C194.18 147.49 193.21 146.17 192.06 145.69C188.88 144.36 185.14 147.19 185.75 150.45Z" />
			</g>
			<g id="Layer">
				<path id="Layer" fill-rule="evenodd" class="shp0" d="M299.16 99.17C300.94 99.96 302.59 101.61 303.51 103.47L304.32 105.1L333.81 105.1L363.29 105.1L363.75 105.92C364.18 106.7 364.21 108.18 364.29 127.18L364.36 147.62L379.74 147.62L380.35 146.2C381.09 144.52 382.7 142.83 384.38 141.99C385.45 141.46 385.95 141.38 388.4 141.38C390.97 141.38 391.3 141.43 392.52 142.07C394.31 143.01 395.58 144.34 396.39 146.07C396.95 147.27 397.06 147.85 397.06 149.79C397.06 151.75 396.95 152.28 396.37 153.53C395.02 156.43 392.78 158.16 389.88 158.57C388.14 158.8 385.52 158.49 384.4 157.91C382.98 157.17 381.09 155.18 380.38 153.66L379.67 152.18L370.6 152.18C361.64 152.18 361.54 152.18 361.03 151.64C360.75 151.34 360.39 150.68 360.26 150.19C360.11 149.63 360.01 141.69 360.01 129.37L360.01 109.43L332.15 109.38L304.3 109.3L303.61 110.91C301.85 114.95 296.46 117.14 292.33 115.49C289.63 114.39 287.85 112.38 287.04 109.58C285.76 105.05 288.56 99.83 292.87 98.71C294.29 98.35 297.91 98.61 299.16 99.17ZM293.43 103.17C291.67 103.93 290.8 105.74 291.08 108.08C291.31 110.22 292.74 111.39 295.36 111.62C296.89 111.77 297.07 111.72 298.06 110.98C299.59 109.86 300 108.97 299.87 106.86C299.79 105.36 299.67 105 299.05 104.36C298.65 103.93 297.93 103.42 297.5 103.19C296.48 102.73 294.47 102.71 293.43 103.17ZM383.94 150.07C383.94 151.59 384.58 152.71 385.9 153.58C387.15 154.39 388.25 154.6 389.49 154.27C391.53 153.71 392.85 151.92 392.85 149.79C392.85 147.98 391.99 146.68 390.13 145.74C387.28 144.29 383.94 146.63 383.94 150.07Z" />
			</g>
			<g id="Layer">
				<path id="Layer" fill-rule="evenodd" class="shp0" d="M469.29 117.53C469.95 117.81 471.05 118.57 471.73 119.21C474.48 121.78 475.25 125.7 473.64 129.06C472.57 131.38 471.23 132.78 469.32 133.67L467.71 134.38L467.71 166.11L473.77 172.6C482.17 181.64 486.12 185.99 486.48 186.65C486.96 187.52 486.86 188.21 486.15 188.9L485.48 189.51L478.18 189.58L470.84 189.66L470.26 191.11C469.52 192.84 467.84 194.62 466.06 195.49C464.96 196.05 464.43 196.13 462.11 196.13C459.61 196.13 459.33 196.08 458.09 195.36C455.11 193.73 453.4 190.8 453.4 187.42C453.43 181.61 459.05 177.46 464.68 179.09C467.36 179.86 469.72 182.02 470.51 184.44L470.82 185.3L473.64 185.28C475.22 185.25 477.13 185.18 477.87 185.1L479.27 184.92L474.1 179.32C471.25 176.24 467.74 172.45 466.29 170.89L463.64 168.07L463.59 151.19L463.51 134.31L462.42 133.92C461.12 133.49 458.47 131.15 457.78 129.82C457.12 128.5 456.66 125.93 456.84 124.45C457.22 121.19 459.72 118.21 462.95 117.17C464.5 116.66 467.79 116.84 469.29 117.53ZM463.61 121.6C461.4 122.72 460.56 124.99 461.47 127.2C462.59 129.85 465.39 130.84 467.84 129.47C469.34 128.63 470 127.48 470 125.75C469.98 123.54 469.29 122.29 467.66 121.52C465.93 120.71 465.27 120.73 463.61 121.6ZM457.68 186.71C457.35 188.49 458.44 190.7 460.1 191.54C461.24 192.15 463.64 192.03 464.66 191.34C465.98 190.47 466.46 189.4 466.49 187.49C466.49 185.48 465.85 184.26 464.38 183.52C461.68 182.12 458.21 183.75 457.68 186.71Z" />
			</g>
			<g id="Layer">
				<path id="Layer" fill-rule="evenodd" class="shp0" d="M215.36 125.19C215.92 126.41 216.02 126.95 216.02 129.03C216.02 131.96 215.54 133.21 213.6 135.25C211.85 137.13 210.35 137.74 207.65 137.72C206.53 137.72 205.2 137.59 204.74 137.46C202.45 136.78 200.01 134.56 199.19 132.45L198.76 131.33L178.49 131.38C167.34 131.4 155.86 131.48 152.96 131.53L147.69 131.61L146.9 133.24C145.5 136.14 143.05 137.72 139.61 137.9C136.38 138.07 134.95 137.54 132.87 135.43C130.83 133.36 130.22 131.91 130.22 129.01C130.22 127.35 130.35 126.85 131.06 125.42C132.54 122.44 135.23 120.66 138.6 120.43C140.94 120.3 142.8 120.96 144.63 122.62C146.08 123.92 147.4 125.8 147.4 126.54C147.4 126.97 148.3 127 169.25 126.95C181.24 126.92 192.8 126.85 194.92 126.79L198.74 126.72L199.22 125.42C200.08 123 202.91 120.84 205.76 120.43C210.09 119.82 213.66 121.57 215.36 125.19ZM204.01 126.06C202.15 128.17 202.81 131.73 205.25 133.01C206.35 133.57 209.02 133.39 209.96 132.7C211.24 131.73 211.67 130.92 211.75 129.21C211.87 127.2 211.19 125.9 209.56 125.04C207.55 123.99 205.48 124.38 204.01 126.06ZM137.37 125.11C136.07 125.6 135.46 126.13 134.9 127.38C134.32 128.65 134.32 129.37 134.83 130.92C135.62 133.24 138.34 134.43 140.56 133.41C142.69 132.45 143.76 130.59 143.43 128.4C143.23 127.02 142.39 125.9 141.01 125.22C139.87 124.63 138.77 124.6 137.37 125.11Z" />
			</g>
			<g id="Layer">
				<path id="Layer" fill-rule="evenodd" class="shp0" d="M313.39 122.62C315.09 124.25 315.78 125.8 315.91 128.53C316.04 131.3 315.43 133.03 313.67 134.97C311.86 136.95 310 137.74 307.05 137.74C305.19 137.74 304.55 137.64 303.56 137.16C301.93 136.37 299.89 134.31 299.16 132.65L298.54 131.33L282.25 131.38C273.26 131.4 263.94 131.5 261.52 131.58L257.14 131.71L256.53 133.03C255.23 135.83 252.33 137.69 248.97 137.9C245.51 138.1 242.96 136.93 241.23 134.33C238.15 129.62 239.78 123.51 244.77 121.24C247.83 119.84 251.16 120.23 253.63 122.24C255.26 123.56 256.61 125.29 256.81 126.26L256.97 127L273.03 127C281.87 127 291.24 126.92 293.83 126.82L298.6 126.67L299.16 125.32C300.15 122.87 302.85 120.86 305.7 120.4C308.55 119.95 311.43 120.76 313.39 122.62ZM305.39 124.81C302.87 125.9 301.96 129.52 303.64 131.73C304.32 132.68 306.13 133.62 307.2 133.62C308.25 133.59 309.85 132.8 310.74 131.86C311.45 131.1 311.5 130.92 311.5 129.03C311.5 126.67 311.1 125.93 309.34 125.01C308.07 124.38 306.57 124.3 305.39 124.81ZM244.03 128.73C243.8 130.44 244.34 131.78 245.66 132.78C247.65 134.31 249.68 134.2 251.44 132.52C253.89 130.18 253.38 126.54 250.42 125.19C247.47 123.84 244.49 125.5 244.03 128.73Z" />
			</g>
			<g id="Layer">
				<path id="Layer" fill-rule="evenodd" class="shp0" d="M341.73 128.07C343.48 128.88 345.16 130.51 346.01 132.22C346.57 133.34 346.64 133.85 346.64 136.16C346.64 138.71 346.59 138.91 345.8 140.39C344.88 142.07 343.54 143.27 341.19 144.44L339.84 145.13L340 146.55C340.07 147.34 340.23 164.12 340.3 183.83L340.48 219.63L341.7 220.16C343.28 220.8 345.22 222.61 346.13 224.31C347.07 226.04 347.3 229.02 346.67 231.21C346.16 232.94 344.22 235.21 342.47 236.08C338.95 237.86 335.11 237.4 332.38 234.93C330.32 233.05 329.61 231.36 329.58 228.46C329.58 226.4 329.66 225.99 330.4 224.46C331.36 222.4 332.89 220.87 334.62 220.24L335.95 219.73L335.95 182.35L335.95 144.97L334.52 144.26C332.33 143.14 331.11 141.94 330.17 140.03C329.4 138.48 329.33 138.12 329.33 136.04C329.35 133.26 329.84 131.96 331.64 130.03C332.92 128.68 333.73 128.17 335.44 127.58C337.04 127.05 340 127.28 341.73 128.07ZM336.2 131.81C334.88 132.4 333.53 134.61 333.53 136.21C333.55 137.36 334.34 139.02 335.18 139.68C336.69 140.87 338.57 140.95 340.43 139.93C341.8 139.17 342.31 138.15 342.31 136.04C342.31 133.95 341.78 132.96 340.23 132.19C339.13 131.68 336.97 131.48 336.2 131.81ZM338.19 224.01C336.48 224.01 336.28 224.06 335.44 224.8C334.19 225.89 333.78 226.78 333.78 228.41C333.78 229.99 334.42 231.16 335.8 232.08C336.46 232.54 337.02 232.66 338.24 232.66C340.05 232.66 341.14 232.1 342.11 230.65C343 229.33 342.92 227.21 341.96 225.87C341.55 225.28 340.94 224.64 340.61 224.41C340.23 224.13 339.46 224.01 338.19 224.01Z" />
			</g>
			<g id="Layer">
				<path id="Layer" fill-rule="evenodd" class="shp0" d="M417.6 140.85C423.38 141.23 427.15 146.58 425.6 152.1C424.81 154.83 423.15 156.74 420.48 157.98L419.46 158.44L419.39 164.86L419.33 171.28L420.96 172.04C422.85 172.96 424.22 174.36 425.17 176.37C425.73 177.59 425.83 178.12 425.83 180.21C425.8 182.33 425.73 182.81 425.11 184.06C423.71 186.96 420.79 188.84 417.63 188.92C413.4 189 409.81 186.53 408.72 182.78C408.21 181.03 408.39 178.18 409.12 176.55C409.89 174.81 411.98 172.73 413.63 172.04L415.01 171.45L415.01 165.67C415.01 162.52 414.93 159.54 414.85 159.11C414.73 158.47 414.42 158.16 413.17 157.5C411.47 156.61 409.96 155.03 409.1 153.27C408.28 151.59 408.26 147.8 409.05 146.07C410.09 143.8 412.28 141.94 414.83 141.1C415.49 140.87 416.53 140.8 417.6 140.85ZM414.85 145.81C413.4 146.71 412.84 147.8 412.84 149.71C412.84 151.59 413.25 152.38 414.75 153.4C415.82 154.14 418.27 154.22 419.59 153.53C422.31 152.18 422.29 147.21 419.54 145.81C418.27 145.15 415.92 145.15 414.85 145.81ZM415.67 175.88C414.8 176.16 413.58 177.26 413.07 178.23C412.56 179.22 412.64 181.08 413.22 182.25C413.83 183.45 414.8 184.16 416.36 184.59C417.4 184.87 417.68 184.85 418.72 184.39C419.41 184.11 420.25 183.5 420.71 182.94C421.42 182.05 421.5 181.79 421.5 180.14C421.5 178.05 421.12 177.28 419.56 176.42C418.47 175.78 416.71 175.55 415.67 175.88Z" />
			</g>
			<g id="Layer">
				<path id="Layer" fill-rule="evenodd" class="shp0" d="M125 141.08C127.06 141.13 127.67 141.26 128.89 141.84C130.47 142.63 131.85 144.06 132.76 145.84C133.48 147.29 133.71 148.31 133.68 150.12C133.66 153.07 131.13 156.69 128.28 157.86L127.04 158.39L127.04 171.48L128.18 171.91C129.79 172.52 131.64 174.31 132.66 176.19C133.48 177.67 133.53 177.95 133.53 180.09C133.53 182.05 133.43 182.58 132.87 183.78C131.95 185.69 130.35 187.24 128.33 188.21C124.97 189.79 121.05 189 118.43 186.22C116.65 184.34 116.01 182.53 116.14 179.68C116.32 176.06 117.72 173.9 121.03 172.17L122.38 171.45L122.55 166.11C122.66 163.18 122.78 160.3 122.86 159.74L123.01 158.7L121.38 157.91C117.89 156.18 116.34 153.94 116.14 150.45C115.88 146.22 118.02 142.68 121.66 141.33C122.25 141.1 123.42 141.03 125 141.08ZM122.83 145.69C121.15 146.42 119.96 148.72 120.31 150.55C120.72 152.76 122.38 153.99 124.97 153.99C126.45 153.99 126.7 153.91 127.7 153.1C128.89 152.1 129.33 151.08 129.33 149.23C129.33 148.16 128.64 147.06 127.16 145.79C126.53 145.25 123.98 145.18 122.83 145.69ZM123.09 175.99C121.03 176.75 119.8 179.32 120.44 181.51C121.31 184.39 124.82 185.64 127.32 183.96C128.79 182.94 129.2 182.15 129.2 180.24C129.2 178.33 128.87 177.62 127.44 176.52C126.37 175.71 124.51 175.48 123.09 175.99Z" />
			</g>
			<g id="Layer">
				<path id="Layer" fill-rule="evenodd" class="shp0" d="M155.81 141.08C157.87 141.13 158.46 141.26 159.7 141.84C161.36 142.68 162.73 144.13 163.62 146.02C164.13 147.11 164.23 147.77 164.23 149.51C164.26 150.7 164.11 152.1 163.93 152.64C163.24 154.78 161.08 157.09 158.94 157.93L157.84 158.37L157.84 164.6L163.27 164.78C168.89 164.94 171.49 164.96 194.64 164.94L208.64 164.94L209.38 163.54C210.45 161.5 211.9 159.97 213.55 159.16C214.83 158.54 215.29 158.44 217.42 158.44C219.51 158.44 220.05 158.54 221.24 159.1C223.03 159.95 224.71 161.63 225.55 163.41C226.11 164.58 226.21 165.16 226.21 167.1C226.21 169.03 226.11 169.62 225.55 170.82C224.63 172.75 223.25 174.2 221.55 175.04C220.25 175.68 219.82 175.76 217.55 175.76C215.36 175.76 214.83 175.68 213.73 175.12C212.03 174.31 210.14 172.37 209.38 170.66L208.74 169.26L181.8 169.26L154.87 169.26L154.3 168.65C153.62 167.94 153.54 167.33 153.31 162.16L153.13 158.24L152.04 157.86C150.66 157.4 148.47 155.29 147.71 153.71C146.18 150.52 146.62 146.83 148.86 143.88C149.54 142.99 151.56 141.61 152.68 141.26C153.06 141.13 154.48 141.05 155.81 141.08ZM153.77 145.51C152.22 146.09 150.99 147.93 150.97 149.66C150.97 150.17 151.22 151.08 151.56 151.7C152.32 153.22 153.8 153.99 155.93 153.99C157.46 153.99 157.56 153.94 158.71 152.89L159.88 151.8L159.88 149.79C159.88 148.05 159.8 147.7 159.22 146.93C158.86 146.48 158.25 145.92 157.84 145.71C157.13 145.33 154.56 145.23 153.77 145.51ZM215.44 163.18C214.17 163.82 213.45 164.73 213.12 166.18C212.54 168.86 214.14 171.07 216.99 171.45C218.52 171.68 219.26 171.45 220.38 170.49C222.8 168.35 222.49 164.68 219.74 163.23C218.34 162.49 216.86 162.47 215.44 163.18Z" />
			</g>
			<g id="Layer">
				<path id="Layer" fill-rule="evenodd" class="shp0" d="M317.82 145.43C319.25 146.02 321.21 148 321.99 149.63C323.34 152.46 323.06 156.15 321.28 158.72C319.68 161.04 315.91 162.69 313.06 162.31C309.72 161.85 306.79 159.69 305.93 157.09L305.47 155.77L276.52 155.77L247.55 155.77L247.39 169.95C247.27 184.85 247.19 185.56 246.12 185.97C245.81 186.07 227.25 186.22 204.9 186.25L164.23 186.35L163.6 187.75C162.15 190.93 159.17 192.74 155.4 192.74C153.59 192.74 153.08 192.64 151.66 191.95C149.72 191.03 148.37 189.63 147.46 187.62C146.56 185.69 146.51 182.5 147.35 180.62C148.17 178.81 149.42 177.41 151.12 176.39C152.57 175.53 152.65 175.5 155.43 175.5C157.9 175.5 158.38 175.58 159.45 176.11C160.98 176.9 163.06 179.09 163.73 180.59L164.23 181.74L203.55 181.74L242.89 181.74L242.89 153.12L243.7 152.28L244.52 151.44L274.99 151.44L305.47 151.44L305.88 150.27C306.69 147.85 309.44 145.46 312.04 144.95C313.69 144.62 316.44 144.85 317.82 145.43ZM313.85 149.15C311.48 149.17 309.6 151.14 309.6 153.55C309.6 154.57 310.36 156.23 311.15 156.97C313.62 159.21 317.77 157.86 318.53 154.55C318.99 152.59 317.69 150.12 315.88 149.43C315.48 149.28 314.56 149.15 313.85 149.15ZM151.56 181.94C149.75 184.87 152.47 188.95 155.96 188.54C157.92 188.33 159.86 186.4 160.06 184.46C160.24 182.96 159.12 180.85 157.77 180.14C155.35 178.89 153.01 179.58 151.56 181.94Z" />
			</g>
			<g id="Layer">
				<path id="Layer" fill-rule="evenodd" class="shp0" d="M269.29 169.31C271.33 170.05 273.8 172.52 274.23 174.2L274.51 175.37L296.71 175.4C308.91 175.4 319.58 175.48 320.42 175.55C321.23 175.63 322.2 175.86 322.53 176.09L323.17 176.5L323.01 201.09C322.94 214.61 322.76 225.99 322.66 226.4C322.5 226.93 322.2 227.24 321.66 227.39C321.26 227.52 306.72 227.67 288.41 227.75L255.92 227.88L255.46 229.07C255.21 229.74 254.47 230.78 253.73 231.52C249.25 236 242.55 235.21 239.6 229.86C238.71 228.26 238.68 228.13 238.68 225.53C238.68 223.14 238.76 222.73 239.37 221.59C240.19 220.01 241.99 218.3 243.6 217.56C245.36 216.75 249.1 216.78 250.98 217.62C252.61 218.35 254.88 220.72 255.49 222.33L255.95 223.5L287.34 223.5L318.76 223.5L318.76 201.6L318.76 179.7L274.53 179.7L274.1 180.8C273.11 183.4 271.07 185.15 268.14 185.97C266.74 186.35 266.29 186.37 264.76 186.12C262.41 185.71 260.79 184.85 259.36 183.27C257.68 181.41 257.07 179.6 257.2 177.03C257.32 174.53 257.93 173.06 259.56 171.33C260.79 170 262.36 169.11 264.12 168.75C265.57 168.45 267.56 168.65 269.29 169.31ZM264.15 173.19C261.73 174.25 260.79 177.21 262.06 179.7C263.56 182.71 268.25 182.71 269.8 179.73C270.94 177.51 270.23 174.51 268.35 173.57C267.1 172.96 265.09 172.78 264.15 173.19ZM247.27 221.21C245.33 221.23 244.57 221.56 243.68 222.89C242.4 224.74 242.45 226.96 243.78 228.54C244.69 229.61 245.66 229.94 247.7 229.81C249.74 229.71 250.5 229.2 251.31 227.44C252.23 225.48 251.82 223.75 250.04 222.15C249.05 221.26 248.92 221.21 247.27 221.21Z" />
			</g>
			<g id="Layer">
				<path id="Layer" fill-rule="evenodd" class="shp0" d="M364.74 170.87C365.18 171.22 365.92 172.24 366.4 173.13C367.21 174.66 367.27 174.87 367.27 177.28C367.27 179.5 367.19 180.01 366.6 181.26C365.66 183.27 364.36 184.59 362.56 185.41L361.03 186.09L361.03 213.47L361.03 240.86L372.05 240.71C378.09 240.63 390.28 240.51 399.09 240.43C407.93 240.35 416 240.23 417.04 240.15L418.95 240L419.72 238.75C420.89 236.79 422.8 235.03 424.4 234.42C426.34 233.68 429.54 233.68 431.23 234.45C434.03 235.67 435.86 238.04 436.42 241.07C437.29 245.98 433.72 250.82 428.76 251.4C425.06 251.84 420.56 249.21 419.51 246.06L419.16 245.01L388.48 244.94L357.79 244.88L357.31 244.35C356.6 243.56 356.5 239.51 356.47 210.82L356.44 186.07L355.76 185.81C353.54 185 351.86 183.47 350.79 181.28C350.03 179.75 349.95 179.37 349.95 177.41C349.98 175.63 350.08 174.99 350.64 173.82C351.89 171.12 354.33 169.16 356.9 168.78C359.53 168.4 362.89 169.29 364.74 170.87ZM356.19 173.64C354.15 175.04 353.62 177.87 355.02 179.98C356.83 182.71 360.82 182.58 362.48 179.75C363.83 177.46 363.22 174.87 361.08 173.64C359.68 172.85 357.36 172.85 356.19 173.64ZM425.83 238.37C424.12 239.13 422.98 241.4 423.31 243.31C423.87 246.54 427.38 248.12 430.18 246.41C432.88 244.73 432.93 240.63 430.28 238.88C429.04 238.04 427.02 237.81 425.83 238.37Z" />
			</g>
			<g id="Layer">
				<path id="Layer" fill-rule="evenodd" class="shp0" d="M529.48 178.07C529.84 181.54 527.8 185.15 524.62 186.71C520.82 188.56 515.5 187.29 513.54 184.03C511.86 181.23 511.99 181.36 510.41 181.28L508.96 181.21L508.96 211.02C508.96 239.18 508.98 240.84 509.42 240.96C512.6 241.91 515.5 245.52 515.78 248.88C516.04 251.86 514.15 255.45 511.53 257.03C508.02 259.14 503.64 258.61 500.71 255.76C498.8 253.87 498.19 252.17 498.32 249.09C498.47 245.42 499.97 243 503 241.57L504.63 240.79L504.63 212.09C504.66 196.3 504.76 182.22 504.89 180.8C505.11 178.28 505.39 177.23 506.01 176.85C506.16 176.75 507.56 176.65 509.14 176.65L511.99 176.65L512.6 175.3C512.93 174.59 513.64 173.49 514.15 172.91C515.25 171.63 517.95 170.23 519.63 170.03C524.44 169.44 528.97 173.16 529.48 178.07ZM516.57 176.98C515.17 180.09 517.23 183.27 520.65 183.27C522.25 183.27 523.55 182.71 524.24 181.74C524.97 180.7 525.36 178.68 525.03 177.49C524.69 176.29 523.37 174.94 522.17 174.61C519.63 173.87 517.59 174.74 516.57 176.98ZM503.61 246.49C502.31 247.81 502.03 249.65 502.82 251.4C503.64 253.21 505.55 254.25 507.53 253.95C511.96 253.24 512.88 247.2 508.86 245.37C506.95 244.5 505.19 244.88 503.61 246.49Z" />
			</g>
			<g id="Layer">
				<path id="Layer" fill-rule="evenodd" class="shp0" d="M386.62 179.53C390 179.65 392.7 181.26 394.28 184.08C394.97 185.33 395.02 185.64 395.02 188.11C395.02 190.52 394.94 190.93 394.31 192.23C393.47 193.94 391.58 195.74 389.93 196.41L388.78 196.89L388.78 210.21L389.47 210.36C390.94 210.74 393.54 213.06 394.56 214.89C394.92 215.55 395.02 216.32 395.02 218.53C395.02 221 394.94 221.49 394.38 222.61C392.4 226.65 387.86 228.54 383.64 227.09C380.91 226.15 379.56 224.9 378.29 222.1C377.45 220.26 377.48 216.78 378.34 214.97C379.18 213.26 381.09 211.38 382.8 210.64L384.2 210L384.2 197.02L382.9 196.36C381.19 195.49 379.36 193.76 378.65 192.36C377.48 189.99 377.35 186.88 378.34 184.64C379.21 182.68 381.78 180.31 383.71 179.73C384.2 179.58 385.5 179.5 386.62 179.53ZM385.11 183.9C382.36 184.9 381.14 187.88 382.49 190.4C383.79 192.87 387.48 193.48 389.49 191.59C391.66 189.58 391.28 186.02 388.76 184.49C387.3 183.62 386.34 183.45 385.11 183.9ZM384.22 214.76C382.62 215.55 381.63 217.79 382.01 219.78C382.34 221.56 384.5 223.22 386.46 223.24C388.5 223.24 390.59 221.46 390.94 219.37C391.25 217.69 390.13 215.55 388.5 214.71C387.56 214.2 385.29 214.23 384.22 214.76Z" />
			</g>
			<g id="Layer">
				<path id="Layer" fill-rule="evenodd" class="shp0" d="M300.17 196.13C302.75 197.04 304.55 199.08 305.39 201.98C306.54 205.9 304.55 210.16 300.63 212.22C299.44 212.85 299.03 212.93 296.86 212.93C294.85 212.93 294.24 212.83 293.25 212.35C291.34 211.4 289.66 209.72 288.87 207.99L288.18 206.44L282.53 206.44C279.42 206.44 258.04 206.54 234.99 206.69C211.95 206.82 179.84 207.02 163.65 207.1L134.19 207.25L133.5 208.68C132.61 210.51 131.11 211.96 129.2 212.91C127.9 213.57 127.37 213.67 125.64 213.67C122.81 213.69 121.28 213.11 119.5 211.4C117.51 209.47 116.77 207.71 116.77 205.04C116.77 203.23 116.88 202.7 117.54 201.32C118.4 199.46 120.01 197.78 121.69 196.94C122.66 196.48 123.27 196.38 125.51 196.38C127.82 196.38 128.36 196.46 129.43 196.99C131.03 197.78 132.33 199.13 133.4 201.12L134.24 202.7L197.41 202.54C259.54 202.36 278.46 202.24 285.02 201.96L288.36 201.8L288.84 200.63C289.74 198.44 291.98 196.48 294.32 195.82C295.74 195.41 298.62 195.57 300.17 196.13ZM293.27 201.68C291.98 203.48 292.05 205.52 293.48 207.23C294.34 208.25 295.49 208.73 296.99 208.73C299.03 208.73 300.66 207.43 301.22 205.37C301.75 203.38 300.79 201.04 299.11 200.28C296.84 199.21 294.67 199.74 293.27 201.68ZM121.43 203.03C120.06 205.85 121.94 209.19 125.1 209.44C127.42 209.62 129.15 208.42 129.73 206.21C130.32 203.89 129.4 201.7 127.44 200.81C125.1 199.74 122.55 200.68 121.43 203.03Z" />
			</g>
			<g id="Layer">
				<path id="Layer" fill-rule="evenodd" class="shp0" d="M541.6 203.56C543.18 204.27 545.01 206.01 545.83 207.58C546.44 208.73 546.52 209.14 546.52 211.53C546.52 213.95 546.44 214.36 545.8 215.66C544.99 217.34 542.98 219.22 541.4 219.83L540.35 220.21L540.2 232.61C540.1 239.44 540.02 247.02 540.02 249.47L540.02 253.92L535.8 260.03C533.45 263.4 530.3 267.98 528.74 270.22C524.77 275.97 520.47 281.96 520.09 282.26C519.63 282.64 517.08 282.8 510.59 282.8L504.96 282.82L504.68 283.76C503.94 286.08 501.52 288.37 499.06 289.11C497.2 289.65 494.12 289.44 492.54 288.68C490.91 287.89 489.18 286.11 488.39 284.4C487.83 283.18 487.7 282.59 487.7 280.66C487.7 278.57 487.78 278.21 488.54 276.66C489.48 274.75 490.78 273.53 492.82 272.59C493.81 272.13 494.52 272 496.36 272C498.34 272 498.83 272.1 500.1 272.71C502.03 273.66 503.77 275.39 504.53 277.09L505.14 278.49L511.45 278.49L517.79 278.49L518.76 277.04C519.3 276.23 523.32 270.4 527.72 264.06L535.69 252.5L535.69 220.29L534.19 219.6C530.78 218.02 528.41 213.72 529.07 210.26C529.2 209.57 529.58 208.45 529.94 207.79C530.68 206.31 533 204.07 534.47 203.36C535.97 202.67 539.84 202.77 541.6 203.56ZM538.01 207.25C536.28 207.15 536.25 207.15 535.19 208.12C533.96 209.24 533.4 210.33 533.4 211.63C533.4 215.86 539.13 217.72 541.58 214.28C542.47 213.03 542.57 210.44 541.75 209.26C541.45 208.78 540.84 208.17 540.46 207.86C539.95 207.48 539.26 207.33 538.01 207.25ZM492.26 278.55C491.72 279.59 491.8 281.52 492.49 282.82C493.33 284.48 494.14 284.96 496.25 285.06L498.04 285.17L499.46 283.76L500.86 282.34L500.76 280.56C500.66 278.44 500.18 277.63 498.52 276.76C496.2 275.59 493.38 276.38 492.26 278.55Z" />
			</g>
			<g id="Layer">
				<path id="Layer" fill-rule="evenodd" class="shp0" d="M484.97 205.04C490.58 207.61 492.03 214.82 487.8 219.17C486.63 220.37 484.21 221.61 482.56 221.87C481.08 222.1 478.58 221.59 477.06 220.75C475.5 219.91 473.75 217.97 473.16 216.5L472.73 215.35L460.25 215.35L460.43 216.52C460.51 217.16 460.66 222.12 460.76 227.57L460.91 237.48L462.14 237.96C465.62 239.41 467.74 243.36 467.18 247.35C466.11 254.87 457.15 257.56 451.98 251.91C449.68 249.39 449.05 246.26 450.19 243.18C450.91 241.24 453.81 238.21 455.44 237.73L456.51 237.42L456.51 211.76L457.45 211.35C458.21 211.05 459.92 210.94 465.6 210.82L472.78 210.69L473.57 209.09C474.69 206.79 476.88 205.04 479.35 204.4C480.88 204.02 483.37 204.3 484.97 205.04ZM478.35 209.82C476.9 211.15 476.52 213.13 477.36 214.99C479.32 219.3 485.87 217.92 485.87 213.21C485.87 211.15 484.64 209.39 482.76 208.76C481.16 208.22 479.73 208.58 478.35 209.82ZM456.51 242.03C453.4 243.26 453.27 248.27 456.3 249.98C457.65 250.74 460.07 250.64 461.3 249.75C463.64 248.09 463.64 244.3 461.27 242.49C460.07 241.58 458.11 241.4 456.51 242.03Z" />
			</g>
			<g id="Layer">
				<path id="Layer" fill-rule="evenodd" class="shp0" d="M156.7 221.46C158.84 222.4 159.91 223.45 161 225.53L161.94 227.29L191.15 227.37C207.21 227.42 220.56 227.55 220.79 227.65C221.01 227.77 221.29 228.05 221.4 228.28C221.52 228.51 221.65 232.08 221.7 236.15L221.8 243.61L249.74 243.61L277.67 243.61L278.23 242.39C279.09 240.48 280.39 239.16 282.3 238.21C283.83 237.45 284.21 237.37 286.3 237.37C288.28 237.37 288.79 237.48 290.19 238.11C292.18 239.03 293.83 240.79 294.57 242.8C295.74 245.9 294.88 249.93 292.54 252.27C290.35 254.46 286.65 255.35 283.55 254.46C281.59 253.9 279.07 251.58 278.25 249.6L277.67 248.19L249.91 248.17C234.64 248.17 221.35 248.09 220.38 247.97C217.58 247.66 217.68 248.02 217.68 239.26L217.68 231.9L189.67 231.9L161.64 231.9L161.15 233.05C160.42 234.75 158.61 236.56 156.75 237.4C155.4 238.01 154.84 238.11 153.01 238.11C150.38 238.14 148.68 237.45 146.84 235.67C144.83 233.71 144.48 232.74 144.48 229.48C144.48 226.93 144.53 226.55 145.16 225.41C146.41 223.01 149.09 221.05 151.61 220.7C153.46 220.44 154.97 220.65 156.7 221.46ZM151.22 225.3C149.67 225.94 148.63 227.55 148.63 229.35C148.63 233.22 153.26 235.41 156.01 232.84C158.4 230.63 157.97 226.76 155.2 225.51C154.08 225 152.24 224.9 151.22 225.3ZM282.12 247.61C283.34 250.84 288 251.48 290.02 248.65C291.47 246.62 290.65 243.08 288.46 241.96C284.74 240.1 280.65 243.74 282.12 247.61Z" />
			</g>
			<g id="Layer">
				<path id="Layer" fill-rule="evenodd" class="shp0" d="M486.6 237.81C488.44 238.65 490.22 240.43 491.09 242.29C491.65 243.48 491.77 244.1 491.77 245.78C491.77 247.58 491.67 248.04 490.93 249.52C488.95 253.57 484.39 255.48 480.04 254.1L478.46 253.62L472.4 259.68L466.31 265.76L406.86 265.76C374.17 265.76 347.23 265.76 347 265.76C346.74 265.76 346.49 266.04 346.39 266.45C346.13 267.49 344.81 269.46 343.89 270.17C339.92 273.2 334.78 272.94 331.62 269.56C329.79 267.6 329.33 266.37 329.33 263.47C329.33 261.46 329.43 260.85 329.94 259.86C332.28 255.09 337.78 253.36 342.54 255.91C344.25 256.83 345.83 258.61 346.29 260.19L346.59 261.18L464.78 261.18L470.03 255.94L475.3 250.66L474.66 248.98C472.98 244.58 475.35 239.26 479.75 237.53C481.64 236.76 484.59 236.89 486.6 237.81ZM481.33 241.47C478.02 243.28 477.41 246.85 480.01 249.14C481.54 250.49 484.29 250.56 485.81 249.29C488.11 247.35 487.9 243.74 485.38 242.01C484.08 241.09 482.43 240.89 481.33 241.47ZM336.2 259.22C333.43 260.49 332.66 264.44 334.78 266.55C337.68 269.46 342.44 267.57 342.44 263.55C342.44 261.77 341.86 260.54 340.66 259.73C339.49 258.97 337.32 258.71 336.2 259.22Z" />
			</g>
			<g id="Layer">
				<path id="Layer" fill-rule="evenodd" class="shp0" d="M315.68 237.53C317.77 237.86 318.56 238.26 320.21 239.95C322.12 241.83 322.68 243.18 322.68 245.9C322.68 247.76 322.58 248.3 321.97 249.65C321.1 251.56 319.17 253.49 317.44 254.2L316.22 254.69L316.22 267.67L315.35 268.26C314.59 268.79 314.15 268.84 310.46 268.95C308.25 269.02 290.32 269.12 270.64 269.2C250.96 269.28 232.96 269.4 230.64 269.48L226.39 269.66L226.11 270.63C225.7 271.98 223.82 273.94 221.96 274.96C220.48 275.74 220.17 275.82 218.06 275.82C216.1 275.82 215.57 275.72 214.34 275.16C212.36 274.22 210.93 272.87 210.07 271.01C209.1 269.05 208.89 267.52 209.28 265.61C209.89 262.66 211.67 260.31 214.24 259.12C215.51 258.51 216.1 258.38 217.7 258.38C220.76 258.38 222.06 258.89 224.04 260.87C225.19 262.02 225.9 262.99 226.21 263.83L226.69 265.08L260.81 264.92C279.6 264.82 298.7 264.67 303.31 264.57L311.63 264.41L311.63 254.69L310.16 254C307.41 252.73 305.78 250.49 305.27 247.35C304.81 244.38 305.55 242.03 307.63 239.95C309.21 238.37 310.23 237.78 311.86 237.5C313.54 237.22 313.87 237.22 315.68 237.53ZM311.15 242.54C308.65 244.4 308.93 248.6 311.66 249.98C313.03 250.69 315.12 250.66 316.24 249.9C319.35 247.81 319.14 243.54 315.86 241.98C314.05 241.14 312.85 241.27 311.15 242.54ZM216.02 263.01C214.42 263.9 213.58 265.25 213.55 267.04C213.55 269.61 215.49 271.59 218.01 271.62C219.44 271.62 220.43 271.16 221.32 270.12C223.2 267.88 222.64 264.75 220.12 263.19C219.23 262.66 216.86 262.53 216.02 263.01Z" />
			</g>
			<g id="Layer">
				<path id="Layer" fill-rule="evenodd" class="shp0" d="M431.48 276.36C434.79 277.96 436.29 280.63 436.09 284.61C435.91 288.25 434.31 290.69 431.07 292.22C429.88 292.78 429.32 292.88 427.61 292.85C423.84 292.83 421.22 291.23 419.49 287.92L418.55 286.13L407.11 286.13L407.11 317.93L416.94 318.01L426.77 318.09L427.23 318.67C427.51 319 427.76 319.87 427.86 320.84C427.94 321.7 427.99 330.16 427.94 339.6C427.86 357.5 427.86 357.6 426.8 358.09C426.54 358.19 423.1 358.34 419.18 358.39L412 358.49L411.54 359.67C411.01 361.07 408.95 363.23 407.42 364.02C404.24 365.65 399.63 364.96 397.16 362.49C395.5 360.84 394.82 359.18 394.69 356.48C394.59 354.4 394.64 354.01 395.22 352.77C396.09 350.88 397.69 349.18 399.45 348.34C400.72 347.7 401.16 347.62 403.42 347.62C405.64 347.62 406.15 347.7 407.37 348.28C409.2 349.15 410.75 350.73 411.47 352.46L412.05 353.86L423.92 353.86L423.92 322.54L422.59 322.52C404.8 322.21 404.08 322.16 403.62 321.7C402.91 321.02 402.84 318.57 402.81 300.37C402.78 281.58 402.66 282.77 404.69 282.31C405.25 282.19 408.64 282.06 412.23 282.06L418.72 282.06L419.18 280.79C420 278.49 422.8 276.05 425.29 275.41C426.9 275.01 429.52 275.39 431.48 276.36ZM424.94 280.33C423.87 281.04 422.9 282.85 422.9 284.07C422.9 285.34 423.87 287.15 424.91 287.84C426.13 288.68 428.83 288.68 430.05 287.84C432.7 286.08 432.47 281.5 429.7 280.2C428.35 279.56 425.98 279.64 424.94 280.33ZM400.47 352.61C399.5 353.3 398.97 354.5 398.97 356C398.97 358.01 399.98 359.67 401.69 360.38C404.13 361.42 407.32 359.74 407.75 357.17C408.13 354.85 407.22 352.94 405.2 352.05C403.6 351.31 402.02 351.49 400.47 352.61Z" />
			</g>
			<g id="Layer">
				<path id="Layer" fill-rule="evenodd" class="shp0" d="M452.15 275.92C453.73 276.74 455.52 278.62 456.33 280.33L457.02 281.8L464.22 281.8L471.43 281.8L479.04 286.72C497.76 298.79 501.35 301.18 501.63 301.87C501.73 302.1 501.8 305.48 501.8 309.35L501.83 316.41L503.36 317.09C504.94 317.81 507.02 319.74 507.79 321.22C508.81 323.2 508.71 327.61 507.58 329.52C506.8 330.87 504.63 332.88 503.41 333.44C502.75 333.72 501.7 333.85 499.9 333.85C497.63 333.85 497.17 333.77 495.92 333.16C494.32 332.37 492.74 330.79 491.88 329.11C491.06 327.56 490.91 324.17 491.54 322.16C492.13 320.23 493.91 318.29 496.1 317.17L497.76 316.3L497.76 310.3C497.76 305.89 497.68 304.21 497.45 303.9C497.17 303.55 481.1 293.08 472.42 287.58L470.11 286.13L456.87 286.13L456.25 287.58C454.27 292.4 447.88 294.18 443.27 291.2C440.57 289.44 439.3 286.82 439.5 283.26C439.58 281.55 439.75 280.91 440.34 279.79C441.31 278.04 443.37 276.15 444.95 275.62C446.81 274.98 450.65 275.13 452.15 275.92ZM448 279.51C446.5 279.51 446.25 279.59 445.43 280.3C444.19 281.42 443.78 282.29 443.78 283.97C443.78 285.8 444.29 286.74 445.76 287.69C449.1 289.8 453.15 287.05 452.61 283.03C452.46 281.93 451.37 280.4 450.37 279.87C449.96 279.67 448.95 279.51 448 279.51ZM500.23 320.84C497.22 320.63 495.46 322.26 495.47 325.27C495.47 326.44 495.59 327 496.05 327.66C496.76 328.73 498.55 329.67 499.92 329.67C501.35 329.67 503.1 328.73 503.74 327.64C504.78 325.8 504.17 322.64 502.54 321.5C502.03 321.14 501.27 320.91 500.23 320.84Z" />
			</g>
			<g id="Layer">
				<path id="Layer" fill-rule="evenodd" class="shp0" d="M340.71 278.24C343.92 279.23 345.6 280.86 346.57 283.92C347.86 288.14 346.29 292.14 342.44 294.25C340.86 295.15 340.68 295.17 338.24 295.17C336.15 295.17 335.46 295.07 334.5 294.61C332.79 293.82 330.86 291.91 330.07 290.26L329.4 288.86L314.97 289.04C307.05 289.11 297.48 289.26 293.68 289.32C289.91 289.39 281.1 289.52 274.15 289.6L261.47 289.75L260.58 291.38C258.88 294.41 256.46 296.06 253.43 296.27C249.07 296.55 245.56 294.23 244.16 290.1C243.52 288.2 243.52 286.87 244.13 285.04C245.13 282.19 247.24 280 249.86 279.11C251.49 278.55 254.52 278.72 256.18 279.46C257.88 280.2 259.67 281.98 260.71 283.97L261.6 285.65L264.15 285.52C266.87 285.37 276.47 285.19 293.55 284.99C311.61 284.76 321.03 284.61 325.33 284.45L329.48 284.3L330.14 282.98C331.36 280.56 332.69 279.28 335.03 278.34C336.81 277.6 338.55 277.58 340.71 278.24ZM336.08 282.62C334.45 283.46 333.73 284.76 333.83 286.79C333.94 288.68 334.8 290 336.43 290.74C337.78 291.35 338.72 291.35 340.07 290.69C343.74 288.91 343.48 283.61 339.67 282.34C338.37 281.91 337.32 282.01 336.08 282.62ZM250.65 283.46C248.72 284.5 248.16 285.6 248.28 287.94C248.39 289.93 248.84 290.61 250.65 291.48C252.92 292.57 255.44 291.81 256.56 289.72C257.63 287.66 257.17 285.5 255.34 284.02C254.14 283.08 251.85 282.82 250.65 283.46Z" />
			</g>
			<g id="Layer">
				<path id="Layer" fill-rule="evenodd" class="shp0" d="M390.74 291.63C392.45 293.34 392.7 294.03 392.8 297.26C392.91 299.86 392.85 300.21 392.32 301.31C391.35 303.22 389.7 304.87 387.86 305.74L386.23 306.53L386.23 319.21L387.76 320.02C390.03 321.22 391.2 322.36 392.14 324.27C392.91 325.8 392.98 326.18 392.98 328.14C392.98 329.93 392.85 330.56 392.29 331.73C391 334.56 388.7 336.39 386.06 336.75C381.45 337.34 378.04 335.6 376.23 331.76C375.54 330.28 375.41 329.77 375.41 328.02C375.41 326.21 375.52 325.78 376.25 324.27C377.2 322.34 378.49 321.09 380.71 319.97L382.16 319.23L382.16 306.53L380.58 305.69C376.48 303.52 374.6 299.65 375.64 295.55C376.61 291.84 379.33 289.39 383.03 288.96C385.98 288.63 388.6 289.54 390.74 291.63ZM384.45 293.34C383.54 293.31 382.62 293.36 382.42 293.47C380.61 294.36 379.87 295.55 379.87 297.72C379.87 299.25 380.1 299.88 380.99 300.85C382.11 302.1 384.71 302.58 386.21 301.79C389.16 300.26 389.57 295.96 386.95 294.03C386.29 293.54 385.75 293.39 384.45 293.34ZM379.87 328.14C379.87 331.45 382.42 333.31 385.7 332.32C386.72 332.01 387.18 331.71 387.76 330.89C389.49 328.53 388.86 325.57 386.36 324.15C383.36 322.44 379.89 324.58 379.87 328.14Z" />
			</g>
			<g id="Layer">
				<path id="Layer" fill-rule="evenodd" class="shp0" d="M468.27 293.87C473.42 294.05 476.98 298.07 476.55 303.22C476.27 306.6 474.66 309 471.66 310.47C469.85 311.37 469.7 311.39 467.66 311.29C466.29 311.19 465.11 310.96 464.33 310.63C462.67 309.89 460.56 307.83 459.72 306.12L459.03 304.72L453.07 304.72L447.09 304.72L447.14 315.72L447.22 326.74L448.72 327.53C450.75 328.6 452.46 330.44 453.17 332.35C453.99 334.46 453.86 337.39 452.87 339.4C452.1 340.98 450.5 342.58 448.82 343.47C447.88 343.98 447.37 344.06 445.05 344.06C442.86 344.06 442.17 343.96 441.23 343.52C439.5 342.71 437.79 341.05 436.98 339.42C436.37 338.15 436.29 337.67 436.29 335.66C436.27 333.67 436.37 333.16 437.01 331.79C437.87 329.9 439.35 328.45 441.36 327.46L442.76 326.77L442.76 315.03C442.76 308.59 442.84 302.89 442.94 302.35C443.22 300.62 443.37 300.6 451.67 300.44L459.05 300.31L459.67 298.97C460.68 296.78 463.23 294.61 465.55 294C465.98 293.87 467.2 293.82 468.27 293.87ZM464.96 299.02C463.84 299.88 463.38 300.88 463.38 302.43C463.38 303.88 463.77 304.8 464.83 305.79C467.61 308.41 472.32 306.43 472.4 302.58C472.42 301.03 471.25 299.17 469.75 298.41C468.14 297.62 466.59 297.79 464.96 299.02ZM440.52 335.12C440.19 339.07 444.36 341.41 447.57 339.09C448.9 338.13 449.46 337.03 449.46 335.35C449.46 333.7 448.59 332.24 447.19 331.58C444.08 330.1 440.8 331.86 440.52 335.12Z" />
			</g>
			<g id="Layer">
				<path id="Layer" fill-rule="evenodd" class="shp0" d="M318.48 301L319.3 302.68L325.25 302.68C328.62 302.68 331.49 302.78 331.87 302.94C332.84 303.29 335.62 309.07 356.01 353.22L364.24 371.05L366.15 371.35C368.9 371.81 370.04 372.35 371.7 373.87C374.17 376.14 375.03 379.22 374.17 382.58C373.4 385.59 371.47 387.65 368.59 388.54C362.73 390.32 357.36 386.73 357 380.82C356.85 378.3 357.36 376.75 359.04 374.56L360.31 372.91L357.62 367C356.14 363.77 349.32 348.97 342.49 334.13L330.04 307.14L324.67 307.06L319.3 307.01L318.63 308.31C317.26 311.01 314.99 312.84 312.29 313.38C308.42 314.17 304.38 312.21 302.52 308.67C301.91 307.55 301.83 307.11 301.83 304.85C301.83 302.58 301.93 302.15 302.54 300.85C303.79 298.3 306.06 296.5 308.55 296.06C312.63 295.32 316.67 297.34 318.48 301ZM309.37 300.39C307.43 300.85 306.23 302.33 306.08 304.44C305.88 307.19 307.38 308.95 310.18 309.23C311.96 309.4 313.41 308.67 314.33 307.11C315.04 305.89 315.15 303.83 314.56 302.71C314.05 301.72 312.8 300.72 311.68 300.39C310.64 300.11 310.56 300.11 309.37 300.39ZM362.07 377.49C361.79 377.9 361.41 378.74 361.26 379.35C361 380.34 361.03 380.62 361.54 381.82C362.2 383.37 363.19 384.29 364.62 384.67C369.46 385.97 372.41 378.94 368.11 376.42C366.07 375.25 363.34 375.73 362.07 377.49Z" />
			</g>
			<g id="Layer">
				<path id="Layer" fill-rule="evenodd" class="shp0" d="M355.55 301.03C358.94 301.92 361.28 304.47 362.05 308.13C362.58 310.7 361.79 313.43 359.88 315.77C359.4 316.38 358.99 316.99 358.99 317.14C358.99 317.3 362.66 325.8 367.16 336.09C377.99 360.81 385.9 379.07 387.25 382.4L388.35 385.1L390.33 385.25C393.75 385.48 396.24 387.16 397.74 390.22C398.51 391.75 398.58 392.13 398.58 394.22C398.58 396.13 398.48 396.71 397.97 397.78C397.13 399.46 395.43 401.12 393.67 401.93C392.42 402.52 391.89 402.62 389.8 402.62C387.66 402.62 387.2 402.54 385.93 401.91C384.1 401.02 382.36 399.11 381.65 397.2C380.84 395.03 381.02 391.98 382.08 389.89C382.52 389.05 383.23 388.03 383.66 387.62C384.1 387.19 384.45 386.73 384.45 386.6C384.45 386.45 377.76 371.07 369.61 352.46L354.76 318.6L352.8 318.44C348.53 318.09 345.5 315.34 344.73 311.14C344.4 309.3 344.73 306.99 345.52 305.43C346.59 303.34 348.7 301.77 351.43 301.03C353.16 300.57 353.75 300.57 355.55 301.03ZM349.32 307.65C348.68 308.95 348.68 310.14 349.29 311.47C349.85 312.69 350.41 313.22 351.68 313.76C352.98 314.29 354.1 314.24 355.43 313.55C357.08 312.74 357.77 311.44 357.67 309.3C357.56 307.29 356.88 306.17 355.32 305.46C353.01 304.41 350.44 305.36 349.32 307.65ZM387.76 390.07C384.94 391.49 384.45 394.78 386.69 397.12C388.48 398.98 390.77 399.08 392.7 397.37C395.15 395.26 394.84 391.52 392.12 390.09C390.69 389.35 389.21 389.35 387.76 390.07Z" />
			</g>
			<g id="Layer">
				<path id="Layer" fill-rule="evenodd" class="shp0" d="M476.11 323.64C480.01 323.77 482.43 325.27 483.91 328.48C484.54 329.85 484.64 330.36 484.64 332.35C484.64 334.33 484.54 334.82 483.96 335.91C482.99 337.79 481.41 339.42 479.81 340.26L478.41 341L478.38 345.33C478.38 347.7 478.28 350.96 478.18 352.56L478 355.49L476.73 356.59C476.04 357.22 473.11 359.41 470.23 361.47L464.99 365.27L457.6 365.45L450.22 365.62L449.68 366.82C449 368.32 446.86 370.49 445.33 371.23C443.8 371.99 440.6 372.17 438.63 371.58C437.01 371.12 434.69 369.16 433.67 367.41C433.06 366.39 432.96 365.88 432.88 363.79C432.75 360.68 433.31 359.03 435.15 357.15C438.18 354.01 442.94 353.5 446.48 355.92C447.83 356.84 448.77 357.96 449.58 359.64L450.25 360.99L456.89 360.99L463.51 360.99L468.68 357.37L473.82 353.76L473.82 340.95L472.83 340.62C471.28 340.11 468.96 338.1 468.09 336.52C467.46 335.32 467.33 334.82 467.25 332.68C467.15 330.46 467.2 330.08 467.79 328.83C468.65 326.9 470.28 325.24 472.14 324.33C473.59 323.59 473.85 323.56 476.11 323.64ZM474.46 327.92C473.47 328.2 472.32 329.26 471.89 330.33C471.68 330.79 471.53 331.84 471.53 332.63C471.53 334 471.58 334.13 472.75 335.27C473.82 336.34 474.13 336.52 475.38 336.67C477.67 336.95 479.14 336.22 479.96 334.41C481.28 331.51 479.88 328.55 476.88 327.92C475.43 327.61 475.5 327.61 474.46 327.92ZM438.33 360.1C435.55 362.87 437.16 367.25 441.1 367.74C442.15 367.86 442.58 367.79 443.52 367.3C446.88 365.57 446.88 360.96 443.52 359.26C441.69 358.34 439.78 358.65 438.33 360.1Z" />
			</g>
		</g>
	</g>
</svg>