<svg version="1.2" baseProfile="tiny-ps" xmlns="http://www.w3.org/2000/svg" viewBox="0 0 64 65" width="64" height="65">
	<title>glob-svg</title>
	<style>
		tspan { white-space:pre }
		.shp0 { fill: none;stroke: #000000;stroke-width: 3.045 } 
	</style>
	<path id="Layer" class="shp0" d="M31.85 3.01C15.45 3.09 2.23 16.45 2.32 32.85C2.4 49.24 15.76 62.46 32.15 62.38C48.55 62.29 61.77 48.94 61.68 32.54C61.6 16.27 48.43 3.09 32.15 3.01L31.85 3.01L31.85 3.01ZM9.01 51.45C22.77 41.64 41.23 41.64 54.99 51.45M30.05 2.98C12.04 20.74 12.04 44.58 30.05 62.34M34.47 3.26C52.35 20.9 52.35 44.58 34.47 62.21M32 3.01L32 62.38M61.68 32.69L2.31 32.69M9.01 14.83C22.77 24.65 41.23 24.65 54.99 14.83" />
</svg>